# xmcd
# 
# Track frame offsets:
#     150
#     19023
#     32912
#     51234
#     64741
#     83029
#     98717
#     110377
#     124802
#     140924
#     157197
#     178332
#     200081
#     210437
#     226543
#     243536
#     259906
#     278390
#     295471
#     313227
# 
# Disc length: 4455
# 
# Revision: 1
# Processed by: cddbd v1.5.2PL0 Copyright (c) Steve Scherf et al.
# Submitted via: fre:ac v1.0.17
# 
DISCID=2c116514
DTITLE=Christian e Ralf - As 20 mais de christian e ralf
DYEAR=0
DGENRE=Country
TTITLE0=Um cantinho do seu coração
TTITLE1=Machucado coração
TTITLE2=Esse amor que me mata
TTITLE3=Vira Virou
TTITLE4=O que tiver
TTITLE5=Cheiro de Shampoo
TTITLE6=Saudade
TTITLE7=Mito
TTITLE8=Brigas
TTITLE9=Tempo ao tempo
TTITLE10=Na luz deste sol
TTITLE11=Olhos de luas
TTITLE12=Ladrão de mulher
TTITLE13=Eu quero seu amor
TTITLE14=De o vento soprar
TTITLE15=Minha vida sem ela
TTITLE16=Alquimia
TTITLE17=Perdoa
TTITLE18=Chovendo estrelas
TTITLE19=Yolanda
EXTD=
EXTT0=
EXTT1=
EXTT2=
EXTT3=
EXTT4=
EXTT5=
EXTT6=
EXTT7=
EXTT8=
EXTT9=
EXTT10=
EXTT11=
EXTT12=
EXTT13=
EXTT14=
EXTT15=
EXTT16=
EXTT17=
EXTT18=
EXTT19=
PLAYORDER=
